<svg xmlns="http://www.w3.org/2000/svg" xmlns:xlink="http://www.w3.org/1999/xlink" viewBox="0 0 13611.61 13303.56"><defs><style>.cls-1{mask:url(#mask);filter:url(#luminosity-noclip-2);}.cls-2,.cls-6{mix-blend-mode:multiply;}.cls-2{fill:url(#linear-gradient);}.cls-3{mask:url(#mask-2);}.cls-4{fill:url(#linear-gradient-2);}.cls-5{mask:url(#mask-3);filter:url(#luminosity-noclip-4);}.cls-6{fill:url(#linear-gradient-3);}.cls-7{mask:url(#mask-4);}.cls-8{fill:url(#linear-gradient-4);}.cls-9{fill:#fff;}.cls-10{fill:#1dbc4d;}.cls-10,.cls-12,.cls-14{fill-rule:evenodd;}.cls-11{mask:url(#mask-5);}.cls-12{fill:#025413;}.cls-13{mask:url(#mask-6);}.cls-14{fill:#d8d8d8;}.cls-15{filter:url(#luminosity-noclip-3);}.cls-16{filter:url(#luminosity-noclip);}</style><filter id="luminosity-noclip" x="788.99" y="-8472" width="6739.73" height="32766" filterUnits="userSpaceOnUse" color-interpolation-filters="sRGB"><feFlood flood-color="#fff" result="bg"/><feBlend in="SourceGraphic" in2="bg"/></filter><mask id="mask" x="788.99" y="-8472" width="6739.73" height="32766" maskUnits="userSpaceOnUse"><g class="cls-16"/></mask><linearGradient id="linear-gradient" x1="-489507.12" y1="327304.37" x2="344004.3" y2="-153923.67" gradientTransform="matrix(0.03, 0, 0, -0.03, -1962.13, -2139.8)" gradientUnits="userSpaceOnUse"><stop offset="0" stop-color="#fff"/><stop offset="1"/></linearGradient><filter id="luminosity-noclip-2" x="788.99" y="-3004.7" width="6739.73" height="6268.4" filterUnits="userSpaceOnUse" color-interpolation-filters="sRGB"><feFlood flood-color="#fff" result="bg"/><feBlend in="SourceGraphic" in2="bg"/></filter><mask id="mask-2" x="788.99" y="-3004.7" width="6739.73" height="6268.4" maskUnits="userSpaceOnUse"><g class="cls-1"><rect class="cls-2" x="788.99" y="-3004.7" width="6739.73" height="6268.4"/></g></mask><linearGradient id="linear-gradient-2" x1="-489507.12" y1="327304.37" x2="344004.3" y2="-153923.67" gradientTransform="matrix(0.03, 0, 0, -0.03, -1962.13, -2139.8)" gradientUnits="userSpaceOnUse"><stop offset="0" stop-color="#fff"/><stop offset="1" stop-color="#fff"/></linearGradient><filter id="luminosity-noclip-3" x="788.99" y="-8472" width="5181.39" height="32766" filterUnits="userSpaceOnUse" color-interpolation-filters="sRGB"><feFlood flood-color="#fff" result="bg"/><feBlend in="SourceGraphic" in2="bg"/></filter><mask id="mask-3" x="788.99" y="-8472" width="5181.39" height="32766" maskUnits="userSpaceOnUse"><g class="cls-15"/></mask><linearGradient id="linear-gradient-3" x1="188756.67" y1="724422.15" x2="188756.67" y2="-190559.37" xlink:href="#linear-gradient"/><filter id="luminosity-noclip-4" x="788.99" y="-3004.7" width="5181.39" height="5661.57" filterUnits="userSpaceOnUse" color-interpolation-filters="sRGB"><feFlood flood-color="#fff" result="bg"/><feBlend in="SourceGraphic" in2="bg"/></filter><mask id="mask-4" x="788.99" y="-3004.7" width="5181.39" height="5661.57" maskUnits="userSpaceOnUse"><g class="cls-5"><rect class="cls-6" x="788.99" y="-3004.7" width="5181.39" height="5661.57"/></g></mask><linearGradient id="linear-gradient-4" x1="188756.67" y1="724422.15" x2="188756.67" y2="-190559.37" xlink:href="#linear-gradient-2"/><mask id="mask-5" x="4214.22" y="1990.26" width="6739.73" height="6268.4" maskUnits="userSpaceOnUse"><g transform="translate(3425.23 4994.96)"><g id="id0"><g class="cls-3"><rect class="cls-4" x="788.99" y="-3004.7" width="6739.73" height="6268.4"/></g></g></g></mask><mask id="mask-6" x="4214.22" y="1990.26" width="5181.39" height="5661.57" maskUnits="userSpaceOnUse"><g transform="translate(3425.23 4994.96)"><g id="id2"><g class="cls-7"><rect class="cls-8" x="788.99" y="-3004.7" width="5181.39" height="5661.57"/></g></g></g></mask></defs><g id="Layer_2" data-name="Layer 2"><g id="Layer_1-2" data-name="Layer 1"><rect class="cls-9" width="13611.61" height="13303.56"/><path class="cls-10" d="M7520.72-413.25c0,619.09-150.65,1282.9-413.19,1872.65-429.47,965.1-1158.85,1734.84-2022.38,1794-471.43,32.33-884.39-275.61-1070.8-715.86l15.82,26.83c-15.36-34.85-696.6-1616.53,1930.89-2360.82h.46l-38.76-24.3-15.13-9.4-27.05-16.74c-5.28-3.44-11.24-7.11-17.43-10.78l-63.52-39.21L5752.86,74c-4.36-2.75-8.71-5.5-13.07-8L5698.52,40.3c-14.22-8.95-28.89-18.12-44.49-27.52L5622.85-6.48l-32.56-20.18-33.94-21.09c-5.73-3.44-11.46-7.11-17.42-10.78l-35.54-22-36.92-22.93L5408.92-139c-19.49-12.16-39.67-24.77-60.31-37.38l-41-25.45c-7.11-4.36-14-8.71-21.1-13.07l-42.88-26.6c-86.9-53.88-179.76-111.44-277.67-172l-99.51-61.68-155-96.07c-52.51-32.79-106.39-66-161-99.75l-110.29-68.33L4327.56-809l-114.41-70.85-233.43-144.69-178.38-110.52-119.93-74.29c-20.18-12.38-40.12-25-60.3-37.37l-362.75-224.71c-20.17-12.62-40.12-25-60.3-37.38L3107.49-1565l-179.77-111.43-89.42-55.26c-16.74-10.55-33.71-20.87-50.45-31.19l-84.38-52.28c-21.78-13.75-43.79-27.28-65.58-40.58L2460.42-1965.8,2435-1981.62l-136.66-84.61-93.78-58.24-137.35-85.07L1978-2264.8l-1180.18-731-.92-.46,2085,6249.65c0,2603.41-1354.9,4613.86-3641.42,4613.86V-413.25c0-2286.52,1853.16-4140.37,4139.68-4140.37,1528.25,0,2863.66,828,3580.66,2061.36C7317.33-1881.42,7520.72-1171.53,7520.72-413.25Z" transform="translate(3425.23 4994.96)"/><g class="cls-11"><path class="cls-12" d="M7520-469.13,797.3-2996.39,5962.07,203.3c-808.69,0-1618.38,548.46-1927.87,1238.19-406,904.75,235,1867.61,1051,1811.57C6477,3157.46,7520.42,1216.48,7520.42-413.43q0-27.88-.38-55.7Z" transform="translate(3425.23 4994.96)"/></g><g class="cls-13"><path class="cls-10" d="M4067.59,2648.55c-183.35-339.73-225.07-779.86-33.39-1207.06C4343.69,751.76,5153.38,203.3,5962.07,203.3Z" transform="translate(3425.23 4994.96)"/></g><path class="cls-14" d="M5961.52,203.55h-.46c-2627.49,744.29-1946.25,2326-1930.89,2360.82l-15.82-26.83L797.81-2995.79,1978-2264.8l89.19,55.26,137.35,85.07,93.78,58.24L2435-1981.62l25.45,15.82,177.47,110.06c21.79,13.3,43.8,26.83,65.58,40.58l84.38,52.28c16.74,10.32,33.71,20.64,50.45,31.19l89.42,55.26L3107.49-1565l90.57,56.18c20.18,12.38,40.13,24.76,60.3,37.38l362.75,224.71c20.18,12.38,40.12,25,60.3,37.37l119.93,74.29,178.38,110.52,233.43,144.69L4327.56-809l112.59,69.7L4550.44-671c54.57,33.71,108.45,67,161,99.75l155,96.07,99.51,61.68c97.91,60.53,190.77,118.09,277.67,172l42.88,26.6c7.11,4.36,14,8.71,21.1,13.07l41,25.45c20.64,12.61,40.82,25.22,60.31,37.38l57.55,35.54,36.92,22.93,35.54,22c6,3.67,11.69,7.34,17.42,10.78l33.94,21.09,32.56,20.18L5654,12.78c15.6,9.4,30.27,18.57,44.49,27.52L5739.79,66c4.36,2.52,8.71,5.27,13.07,8l46.77,29.12,63.52,39.21c6.19,3.67,12.15,7.34,17.43,10.78l27.05,16.74,15.13,9.4Z" transform="translate(3425.23 4994.96)"/><path class="cls-14" d="M797.58-2996.25C810-2988.68,1302-2683.72,1978-2264.8l-1180.18-731Z" transform="translate(3425.23 4994.96)"/><path class="cls-14" d="M5962,203.32c-.23,0-.23,0-.46.23l-38.76-24.3C5948.45,195.07,5962,203.32,5962,203.32Z" transform="translate(3425.23 4994.96)"/></g></g></svg>